Coordinates
version=1
nRows=16
nColumns=42
inDegrees=yes

Units are S.I. units (second, meters, Newtons, ...)
If the header above contains a line with 'inDegrees', this indicates whether rotational values are in degrees (yes) or radians (no).

endheader
time	pelvis_tilt	pelvis_list	pelvis_rotation	pelvis_tx	pelvis_ty	pelvis_tz	hip_flexion_r	hip_adduction_r	hip_rotation_r	knee_angle_r	knee_adduction_r	knee_angle_r_beta	ankle_angle_r	subtalar_angle_r	mtp_angle_r	hip_flexion_l	hip_adduction_l	hip_rotation_l	knee_angle_l	knee_adduction_l	knee_angle_l_beta	ankle_angle_l	subtalar_angle_l	mtp_angle_l	lumbar_extension	lumbar_bending	lumbar_rotation	arm_flex_r	arm_add_r	arm_rot_r	elbow_flex_r	pro_sup_r	wrist_flex_r	wrist_dev_r	arm_flex_l	arm_add_l	arm_rot_l	elbow_flex_l	pro_sup_l	wrist_flex_l	wrist_dev_l
      0.98000000	     -0.66954596	      2.24872245	      0.85143102	     -0.95127272	      0.89051116	     -0.22341043	     -1.75015429	    -12.43787889	     -1.45520438	     53.83738744	     12.15155304	      0.93963967	     -5.82197291	     -3.50285928	     -7.61844062	     14.58440300	     -3.35759102	     -3.34789741	     18.31605698	     16.60091765	      0.31967550	      6.29478107	     -1.55830144	     -7.61844062	    -11.68562717	     -1.74894016	      2.29269789	     -2.48553372	    -13.99196781	     -2.99451355	     17.82632959	     90.00000001	      0.00000000	      0.00000000	    -10.35646130	     -9.17872553	      2.31681984	     19.62200002	     90.00000001	      0.00000000	      0.00000000
      0.99000000	     -0.52042873	      1.95596082	      0.95192527	     -0.94063755	      0.89246676	     -0.22434512	     -0.17674484	    -12.01893433	     -1.24650876	     55.44248279	     11.78861082	      0.96765387	     -4.29409030	     -4.29118299	     -7.61664833	     13.45414890	     -3.58806792	     -3.30304660	     17.95277880	     16.59035463	      0.31333510	      6.73696567	     -1.02019163	     -7.61664833	    -11.90181795	     -1.34513003	      2.05694184	     -2.48261249	    -14.03881657	     -3.01068558	     17.83402274	     90.00000001	      0.00000000	      0.00000000	     -9.97517368	     -9.39666645	      2.26001658	     19.87186249	     90.00000001	      0.00000000	      0.00000000
      1.00000000	     -0.66180443	      1.68453177	      0.88139911	     -0.92981045	      0.89399041	     -0.22492049	      1.77052349	    -11.58070206	     -1.18629824	     56.82899957	     11.19458942	      0.99185315	     -2.39295896	     -5.21535918	     -7.61419101	     12.39901689	     -3.91527817	     -3.35903061	     17.14671227	     16.76798902	      0.29926658	      7.35650181	     -0.30488085	     -7.61419101	    -11.71692774	     -1.00176246	      2.01498204	     -2.57365273	    -14.03369401	     -3.06055698	     17.69644332	     90.00000001	      0.00000000	      0.00000000	     -9.68869379	     -9.62469496	      2.15115840	     20.09424697	     90.00000001	      0.00000000	      0.00000000
      1.01000000	     -0.65795966	      1.37033812	      0.98058673	     -0.91912470	      0.89562802	     -0.22571193	      3.43652306	    -11.10829078	     -1.32725853	     57.82467948	     10.71592071	      1.00923105	     -0.55586141	     -5.76616863	     -7.61168140	     11.27764402	     -4.21675571	     -3.31010072	     16.46903638	     16.85158859	      0.28743891	      7.84587414	      0.33501775	     -7.61168140	    -11.71789154	     -0.56940994	      1.78998340	     -2.61766786	    -14.03845740	     -3.15229163	     17.61796554	     90.00000001	      0.00000000	      0.00000000	     -9.35484802	     -9.85731883	      2.06281922	     20.33160670	     90.00000001	      0.00000000	      0.00000000
      1.02000000	     -0.57769492	      1.01566585	      1.18629659	     -0.90829081	      0.89725197	     -0.22657286	      4.87455592	    -10.62545536	     -1.73813850	     58.39870068	     10.25483039	      1.01924961	      1.27138422	     -6.01599673	     -7.60894966	     10.05296955	     -4.56990554	     -3.15937567	     15.73333444	     16.95018840	      0.27459849	      8.32749755	      0.99867038	     -7.60894966	    -11.77876520	     -0.06771512	      1.45665679	     -2.66377120	    -14.04116952	     -3.29120224	     17.53857374	     90.00000001	      0.00000000	      0.00000000	     -9.05238166	    -10.08055862	      1.99243193	     20.57794819	     90.00000001	      0.00000000	      0.00000000
      1.03000000	     -0.48831986	      0.67418479	      1.51227642	     -0.89749780	      0.89876096	     -0.22762099	      6.19172282	    -10.19709011	     -2.24276434	     58.61439973	      9.93711822	      1.02301426	      3.09884898	     -6.30483621	     -7.60724631	      8.89422992	     -4.85963503	     -3.08572012	     15.13463612	     16.93397675	      0.26414923	      8.73227101	      1.55444208	     -7.60724631	    -11.84323076	      0.45366503	      1.00093088	     -2.73051866	    -14.05693551	     -3.37585293	     17.50821421	     90.00000001	      0.00000000	      0.00000000	     -8.74758625	    -10.31598975	      1.96415001	     20.81488609	     90.00000001	      0.00000000	      0.00000000
      1.04000000	     -0.39340234	      0.29160005	      1.96432364	     -0.88631707	      0.90009626	     -0.22877066	      7.33372069	     -9.78082375	     -2.93581032	     58.43229542	      9.72858140	      1.01983594	      4.80497987	     -6.38191381	     -7.60557288	      7.67017935	     -5.21740188	     -2.86875353	     14.40304779	     16.98492244	      0.25138061	      9.22790866	      2.22793707	     -7.60557288	    -11.82701713	      1.04260730	      0.41394616	     -2.85360879	    -14.04783279	     -3.50645963	     17.43385842	     90.00000001	      0.00000000	      0.00000000	     -8.53638406	    -10.53789638	      1.95008869	     21.03888299	     90.00000001	      0.00000000	      0.00000000
      1.05000000	      0.35672479	     -0.29174595	      2.77349737	     -0.87440469	      0.90216455	     -0.22990948	      7.36936816	     -9.08090065	     -4.67894819	     57.56700175	      9.02662564	      1.00473372	      6.41260578	     -5.26824152	     -7.59999229	      5.55410475	     -5.93423645	     -2.08977554	     13.22177006	     17.31640265	      0.23076342	      9.79932694	      3.01918484	     -7.59999229	    -12.46709605	      1.90145989	     -0.42312625	     -2.94260293	    -13.96185014	     -4.04235542	     17.32484242	     90.00000001	      0.00000000	      0.00000000	     -8.30239910	    -10.85230140	      1.98426507	     21.37477262	     90.00000001	      0.00000000	      0.00000000
      1.06000000	      0.57491423	     -0.71762096	      3.56350357	     -0.86299124	      0.90327008	     -0.23137030	      8.08349907	     -8.72955377	     -5.70648937	     56.68657166	      9.07202974	      0.98936732	      7.84002556	     -5.05949471	     -7.59652586	      4.25125165	     -6.36104364	     -1.49396705	     12.42871183	     17.36506631	      0.21692194	     10.37320426	      3.65410934	     -7.59652586	    -12.51013584	      2.60026439	     -1.28971374	     -3.11121310	    -13.92773849	     -4.24549727	     17.22892749	     90.00000001	      0.00000000	      0.00000000	     -8.10459115	    -11.11631156	      2.05120001	     21.62575054	     90.00000001	      0.00000000	      0.00000000
      1.07000000	      0.98617756	     -1.18328610	      4.43554912	     -0.85136859	      0.90446629	     -0.23288202	      8.44175760	     -8.31602677	     -6.97824900	     55.41096826	      9.02333776	      0.96710384	      9.08947654	     -4.84965487	     -7.59258303	      2.72673015	     -6.89971633	     -0.88781838	     11.60796041	     17.44314880	      0.20259713	     10.87070302	      4.20440075	     -7.59258303	    -12.72464749	      3.37996720	     -2.23696815	     -3.27612423	    -13.89507147	     -4.54631104	     17.18232910	     90.00000001	      0.00000000	      0.00000000	     -7.93151559	    -11.37619679	      2.15790057	     21.87676558	     90.00000001	      0.00000000	      0.00000000
      1.08000000	      1.08206301	     -1.48949885	      5.29213939	     -0.84002434	      0.90495694	     -0.23454971	      9.19561597	     -8.20346271	     -7.93824129	     54.12925041	      9.30061832	      0.94473364	     10.40200958	     -4.99636920	     -7.59061045	      1.68371347	     -7.20287870	     -0.39105433	     11.04666286	     17.39362351	      0.19280064	     11.37266811	      4.78600274	     -7.59061045	    -12.58307300	      3.97639918	     -3.18449010	     -3.51730397	    -13.87694834	     -4.70852166	     17.14593290	     90.00000001	      0.00000000	      0.00000000	     -7.74567714	    -11.62714183	      2.24688007	     22.04929901	     90.00000001	      0.00000000	      0.00000000
      1.09000000	      1.04915091	     -1.68283175	      5.94956258	     -0.82868017	      0.90509172	     -0.23611556	     10.11641761	     -8.27219776	     -8.81785159	     52.70999349	      9.57077030	      0.91996294	     11.06694938	     -5.06584163	     -7.58936673	      0.79777054	     -7.35095552	     -0.41845327	     10.68449221	     17.21109640	      0.18647957	     11.75212537	      5.09440811	     -7.58936673	    -12.30739612	      4.42037785	     -3.98265613	     -3.81172121	    -13.85015051	     -4.83174874	     17.18154048	     90.00000001	      0.00000000	      0.00000000	     -7.63081175	    -11.81854047	      2.32206916	     22.25073107	     90.00000001	      0.00000000	      0.00000000
      1.10000000	      1.93456912	     -2.40522540	      7.08891401	     -0.81698480	      0.90627229	     -0.23737478	      9.61614815	     -7.47296437	    -10.39899332	     50.42989001	      9.60393777	      0.88016762	     11.83432410	     -5.31595857	     -7.58536043	     -1.22419448	     -8.50427424	      0.82924275	      9.53861231	     17.59737897	      0.16648019	     12.39062287	      5.80794268	     -7.58536043	    -12.95806651	      5.54435741	     -5.04665072	     -3.90090724	    -13.77969766	     -5.42003372	     17.06627831	     90.00000001	      0.00000000	      0.00000000	     -7.38913988	    -12.14331392	      2.65431372	     22.53806921	     90.00000001	      0.00000000	      0.00000000
      1.11000000	      1.92586615	     -2.59735470	      7.77532296	     -0.80618979	      0.90600423	     -0.23869686	     10.44506084	     -7.53890001	    -11.21026557	     48.63391304	      9.98376290	      0.84882191	     12.63695316	     -5.66354609	     -7.58328529	     -2.08144381	     -8.76117381	      1.33700283	      9.03323869	     17.55953667	      0.15765976	     12.88580268	      6.20557302	     -7.58328529	    -12.75127738	      5.97396251	     -5.83755903	     -4.10492567	    -13.74127745	     -5.61582042	     17.03148122	     90.00000001	      0.00000000	      0.00000000	     -7.15065168	    -12.37428256	      2.83642470	     22.66722300	     90.00000001	      0.00000000	      0.00000000
      1.12000000	      2.15844759	     -2.92958637	      8.28950225	     -0.79555440	      0.90592140	     -0.23959020	     10.97949836	     -7.29402169	    -11.94250106	     46.49644658	     10.22217983	      0.81151608	     12.87755520	     -6.32076129	     -7.58005039	     -3.28407661	     -9.29331839	      1.76524614	      8.34227435	     17.64902878	      0.14560015	     13.28641799	      6.37315940	     -7.58005039	    -12.86140339	      6.55552230	     -6.38646914	     -4.22244389	    -13.71017456	     -6.00701866	     17.00580230	     90.00000001	      0.00000000	      0.00000000	     -6.86722312	    -12.62294570	      3.16202827	     22.88291530	     90.00000001	      0.00000000	      0.00000000
      1.13000000	      1.86513797	     -2.79287258	      8.35718008	     -0.78571998	      0.90488616	     -0.24015873	     12.41571107	     -7.71074759	    -12.58103634	     44.86891819	     10.22778420	      0.78311035	     13.07299064	     -6.36329243	     -7.57916049	     -3.76823071	     -9.11144613	      1.41093386	      8.29823655	     17.53623986	      0.14483155	     13.51616236	      6.39626131	     -7.57916049	    -12.58541866	      6.48898421	     -6.60278638	     -4.42782613	    -13.69675216	     -6.04147515	     17.12011824	     90.00000001	      0.00000000	      0.00000000	     -6.55044044	    -12.85635969	      3.20524129	     23.14859356	     90.00000001	      0.00000000	      0.00000000
